<svg
  xmlns="http://www.w3.org/2000/svg"
  aria-hidden="true"
  overflow="hidden"
  style="position:absolute;width:0;height:0"
><defs>
<symbol id="envelope" viewBox="0 0 43 32"><path
        d="M38.667 0H4C1.794 0 0 1.675 0 3.734v22.404c0 2.059 1.794 3.734 4 3.734h34.667c2.206 0 4-1.675 4-3.734V3.734c0-2.059-1.794-3.734-4-3.734zm0 2.489c.181 0 .353.035.511.096L21.334 17.022 3.49 2.585c.158-.061.33-.096.511-.096h34.667zm0 24.894H4c-.736 0-1.333-.558-1.333-1.245V5.216L20.46 19.611c.251.203.563.304.874.304s.622-.101.874-.304L40.001 5.216v20.922c0 .687-.598 1.245-1.333 1.245z"
      /></symbol><symbol id="facebook" viewBox="0 0 32 32"><path
        d="M21.329 5.313h2.921V.225C23.746.156 22.013 0 19.994 0c-4.212 0-7.097 2.649-7.097 7.519V12H8.249v5.688h4.648V32h5.699V17.689h4.46l.708-5.688h-5.169V8.082c.001-1.644.444-2.769 2.735-2.769z"
      /></symbol><symbol id="instagram" viewBox="0 0 32 32"><path
        d="M31.969 9.408c-.075-1.7-.35-2.869-.744-3.882a7.806 7.806 0 00-1.851-2.838A7.867 7.867 0 0026.542.844C25.523.45 24.36.175 22.66.1 20.947.019 20.403 0 16.059 0s-4.888.019-6.595.094c-1.7.075-2.869.35-3.882.744a7.803 7.803 0 00-2.838 1.85A7.867 7.867 0 00.9 5.52C.506 6.539.231 7.702.156 9.402c-.081 1.713-.1 2.257-.1 6.601s.019 4.888.094 6.595c.075 1.7.35 2.869.744 3.882a7.895 7.895 0 001.85 2.838 7.867 7.867 0 002.832 1.844c1.019.394 2.182.669 3.882.744 1.706.075 2.25.094 6.595.094s4.888-.019 6.595-.094c1.7-.075 2.869-.35 3.882-.744a8.184 8.184 0 004.682-4.682c.394-1.019.669-2.182.744-3.882.075-1.707.094-2.251.094-6.595s-.006-4.888-.081-6.595zm-2.882 13.065c-.069 1.563-.331 2.407-.55 2.969a5.31 5.31 0 01-3.038 3.038c-.563.219-1.413.481-2.969.55-1.688.075-2.194.094-6.464.094s-4.782-.019-6.464-.094c-1.563-.069-2.407-.331-2.969-.55a4.926 4.926 0 01-1.838-1.194 4.974 4.974 0 01-1.194-1.838c-.219-.563-.481-1.413-.55-2.969-.075-1.688-.094-2.194-.094-6.464s.019-4.782.094-6.464c.069-1.563.331-2.407.55-2.969a4.868 4.868 0 011.2-1.838A4.974 4.974 0 016.639 3.55c.563-.219 1.413-.481 2.969-.55 1.688-.075 2.194-.094 6.464-.094 4.276 0 4.782.019 6.464.094 1.563.069 2.407.331 2.969.55a4.914 4.914 0 011.838 1.194 4.974 4.974 0 011.194 1.838c.219.563.481 1.413.55 2.969.075 1.688.094 2.194.094 6.464s-.019 4.77-.094 6.458z"
      /><path
        d="M16.059 7.783c-4.538 0-8.22 3.682-8.22 8.22s3.682 8.22 8.22 8.22c4.539 0 8.22-3.682 8.22-8.22s-3.682-8.22-8.22-8.22zm0 13.553a5.333 5.333 0 010-10.664 5.333 5.333 0 010 10.664zM26.524 7.458a1.919 1.919 0 11-3.838 0 1.919 1.919 0 013.838 0z"
      /></symbol><symbol id="linkedin" viewBox="0 0 32 32"><path
        d="M31.992 32v-.001H32V20.263c0-5.741-1.236-10.164-7.948-10.164-3.227 0-5.392 1.771-6.276 3.449h-.093v-2.913h-6.364v21.364h6.627V21.42c0-2.785.528-5.479 3.977-5.479 3.399 0 3.449 3.179 3.449 5.657v10.401h6.62zM.528 10.636h6.635V32H.528V10.636zM3.843 0C1.722 0 0 1.721 0 3.843s1.721 3.879 3.843 3.879c2.121 0 3.843-1.757 3.843-3.879A3.846 3.846 0 003.843 0z"
      /></symbol><symbol id="logo1" viewBox="0 0 29 32"><path
        d="M3.84 0l4.677 4.428h13.046v12.351l4.677 4.428V.001H3.84z"
      /><path
        d="M0 4.241v20.6h21.76v-8.188L8.655 4.247 0 4.242zm17.615 17.587H3.443V7.974h1.002V20.89h13.17v.938zM6.266 28.662l.523-1.078h.438l-.763 1.438v.837h-.397v-.837l-.764-1.438h.439l.523 1.078zm2.247.667h-.881l-.184.53h-.411l.859-2.275h.355l.861 2.275H8.7l-.186-.53zm-.77-.319h.659l-.33-.944-.33.944zm2.328.234c0-.105.029-.202.086-.289.057-.089.17-.193.339-.314-.088-.111-.151-.206-.186-.284s-.052-.154-.052-.227c0-.178.054-.319.162-.422s.254-.156.438-.156a.57.57 0 01.406.147.47.47 0 01.159.361.5.5 0 01-.072.262.879.879 0 01-.236.238l-.155.113.439.519a.9.9 0 00.095-.417h.33c0 .28-.066.51-.197.689l.334.395h-.441l-.128-.152c-.162.122-.356.183-.581.183s-.405-.059-.541-.178a.599.599 0 01-.202-.467zm.753.343a.58.58 0 00.359-.128l-.497-.586-.048.034c-.125.095-.188.203-.188.325 0 .105.034.191.102.256s.158.098.272.098zm-.209-1.466c0 .087.054.197.161.33l.173-.119.048-.039a.28.28 0 00.097-.22.2.2 0 00-.067-.152.236.236 0 00-.17-.064c-.074 0-.133.025-.177.075s-.066.113-.066.189zm4.133.997a.827.827 0 01-.269.569c-.156.135-.364.203-.623.203a.902.902 0 01-.48-.128c-.137-.086-.244-.209-.319-.367s-.114-.342-.117-.552v-.212c0-.215.038-.404.114-.567a.86.86 0 01.821-.511c.251 0 .453.068.606.205s.242.329.267.578h-.394c-.019-.164-.067-.281-.144-.353-.076-.073-.188-.109-.336-.109a.464.464 0 00-.397.189c-.092.125-.139.309-.141.552v.202c0 .246.044.433.131.563s.218.194.387.194c.155 0 .272-.035.35-.105s.128-.186.148-.348h.394zm2.17-.338c0 .223-.039.419-.116.588a.884.884 0 01-.331.388.905.905 0 01-.494.134.926.926 0 01-.494-.134.896.896 0 01-.334-.386 1.362 1.362 0 01-.119-.576v-.128c0-.222.039-.418.117-.588a.887.887 0 01.333-.389c.144-.091.308-.136.494-.136s.349.045.492.134c.144.088.255.217.333.384s.118.361.119.583v.127zm-.395-.118c0-.252-.048-.445-.144-.58a.468.468 0 00-.405-.202.467.467 0 00-.402.202c-.096.133-.145.322-.147.567v.131c0 .25.048.443.145.58s.233.205.406.205a.464.464 0 00.403-.2c.095-.133.142-.328.142-.584v-.119z"
      /></symbol><symbol id="logo2" viewBox="0 0 25 32"><path
        d="M10.447 1.806h.084c.156 0 .324.016.49.03.734.052 1.463.162 2.179.329V.403a12.974 12.974 0 00-2.249-.358 18.11 18.11 0 00-.909-.044h-.263a18.35 18.35 0 00-4.515.582 18.3 18.3 0 00-4.79 1.948v17.475a19.484 19.484 0 014.566-1.779 19.948 19.948 0 013.833-.588h.051c.216-.011.433-.017.655-.019v-1.79a21.155 21.155 0 00-4.982.662 23.81 23.81 0 00-1.731.513l-.623.211V3.591l.266-.128A17.409 17.409 0 018.98 1.812a.523.523 0 01.056 0c.248-.013.497-.019.741-.019h.28c.129.003.258.006.388.014z"
      /><path
        d="M14.837 3.651a15.823 15.823 0 01-2.606-.211c-.277-.047-.55-.103-.814-.164v17.275a13.82 13.82 0 003.425.404 18.396 18.396 0 004.515-.581 18.362 18.362 0 004.792-1.948V1.263a19.58 19.58 0 01-4.564 1.781 19.388 19.388 0 01-4.747.609zm6.908.299l.623-.21v13.63l-.266.128a17.055 17.055 0 01-3.184 1.144c-1.331.344-2.7.522-4.074.527-.411 0-.819-.017-1.214-.052l-.427-.038V5.062l.497.033c.361.023.735.034 1.141.034a21.092 21.092 0 005.173-.663 26.802 26.802 0 001.731-.518zM1.684 25.977a.912.912 0 00-.693-.28 1.034 1.034 0 00-.4.075.91.91 0 00-.512.518 1.023 1.023 0 00-.072.387v2.335c-.006.165.026.328.092.479.055.12.135.226.233.313a.815.815 0 00.321.166c.114.032.231.048.349.049a.972.972 0 00.892-.61.951.951 0 00.075-.372v-.261h-.61v.208a.528.528 0 01-.036.208.359.359 0 01-.089.131.365.365 0 01-.128.067.425.425 0 01-.128.022.314.314 0 01-.286-.125.548.548 0 01-.081-.313v-2.177a.738.738 0 01.075-.349.312.312 0 01.299-.14.33.33 0 01.272.131c.068.09.104.2.101.313v.202h.604v-.238a1.093 1.093 0 00-.279-.737zM5.31 25.95a1.091 1.091 0 00-.694-.257 1.075 1.075 0 00-.364.066.965.965 0 00-.559.518 1.099 1.099 0 00-.089.452v2.239a1.08 1.08 0 00.089.459c.055.12.136.227.237.313a.94.94 0 00.322.197 1.028 1.028 0 00.728 0c.121-.044.233-.111.33-.197a.948.948 0 00.23-.313c.063-.144.093-.301.089-.459v-2.239a1.08 1.08 0 00-.089-.452 1.015 1.015 0 00-.23-.327zm-.285 3.019a.405.405 0 01-.121.324.445.445 0 01-.574 0 .397.397 0 01-.121-.324V26.73a.405.405 0 01.121-.324.445.445 0 01.574 0 .397.397 0 01.121.324v2.239zM10.072 29.969V25.73h-.587l-.771 2.244h-.011l-.777-2.244h-.581v4.239h.606V27.39h.011l.593 1.823h.302l.598-1.823h.011v2.579h.606zM13.513 26.027a.84.84 0 00-.343-.232 1.363 1.363 0 00-.439-.066h-.9v4.239h.604v-1.656h.311c.188.009.376-.031.545-.116a.882.882 0 00.332-.324 1.02 1.02 0 00.139-.369c.024-.16.035-.321.033-.482a2.421 2.421 0 00-.059-.606.898.898 0 00-.223-.39zm-.312 1.293a.547.547 0 01-.056.221.346.346 0 01-.156.149.619.619 0 01-.285.053h-.275v-1.441h.311a.578.578 0 01.272.053.352.352 0 01.142.156.624.624 0 01.053.236v.282c0 .099.006.2 0 .291h-.006zM16.374 25.73h-.495l-.934 4.239h.604l.177-.911h.823l.177.911h.604l-.957-4.239zm-.557 2.751l.297-1.537h.011l.296 1.537h-.604zM20.277 28.283h-.011l-.912-2.554h-.581v4.239h.604v-2.549h.012l.923 2.549h.568v-4.239h-.604v2.554zM23.968 25.73l-.486 1.685h-.012l-.486-1.685h-.64l.83 2.447v1.792h.604v-1.792l.83-2.447h-.64zM0 31.166h.291v.817h.198v-.817h.29v-.167H.001v.167zM2.447 30.999l-.381.984h.21l.081-.224h.392l.084.224h.215l-.391-.984h-.21zm-.031.594l.134-.365.134.365h-.268zM4.866 31.62h.227v.127a.382.382 0 01-.234.083.244.244 0 01-.209-.093.411.411 0 01-.073-.257c0-.219.095-.329.283-.329a.206.206 0 01.222.157l.195-.038c-.042-.192-.181-.289-.417-.289a.495.495 0 00-.344.127.494.494 0 00-.141.379.532.532 0 00.126.369.477.477 0 00.374.144.59.59 0 00.417-.157v-.388h-.427v.166zM7.337 30.999h-.199v.984h.69v-.167h-.49v-.817zM9.426 30.999h-.199v.984h.199v-.984zM11.469 31.656l-.403-.657h-.193v.984h.185v-.643l.395.643h.198v-.984h-.182v.657zM13.315 31.549h.49v-.167h-.49v-.216h.528v-.167h-.727v.984h.747v-.167h-.548v-.266zM17.792 31.387h-.388v-.388h-.198v.984h.198v-.43h.388v.43h.198v-.984h-.198v.388zM19.649 31.549h.492v-.167h-.492v-.216h.529v-.167h-.727v.984h.746v-.167h-.548v-.266zM22.168 31.549c.171-.027.258-.117.258-.274a.236.236 0 00-.096-.219.553.553 0 00-.288-.058h-.417v.984h.198v-.412h.039a.261.261 0 01.123.022.21.21 0 01.07.072l.215.313h.237l-.12-.192a.685.685 0 00-.218-.236zm-.199-.136h-.146v-.247h.156a.526.526 0 01.201.023c.014.013.026.029.033.046a.133.133 0 01-.005.111.128.128 0 01-.037.043.547.547 0 01-.201.023zM24.067 31.549h.49v-.167h-.49v-.216h.529v-.167h-.729v.984h.747v-.167h-.548v-.266z"
      /></symbol><symbol id="logo3" viewBox="0 0 31 32"><path
        d="M4.722 31.103a.088.088 0 01.059.025l.153.161c-.119.13-.266.234-.431.305a1.532 1.532 0 01-.611.109 1.496 1.496 0 01-.574-.102 1.25 1.25 0 01-.712-.733 1.618 1.618 0 01-.098-.571c-.003-.195.033-.39.105-.573.067-.166.168-.317.297-.445.131-.126.287-.224.459-.29.189-.07.389-.104.591-.102.188-.004.375.027.549.093.152.063.291.15.412.257l-.128.171a.122.122 0 01-.033.031.084.084 0 01-.052.013.123.123 0 01-.056-.018l-.069-.046-.096-.058a.978.978 0 00-.302-.103 1.238 1.238 0 00-.228-.018 1.12 1.12 0 00-.425.077.96.96 0 00-.333.215.997.997 0 00-.216.343c-.054.145-.08.298-.078.452-.002.156.024.312.078.46.047.126.119.242.212.341a.863.863 0 00.318.212c.125.049.259.074.394.073.078.001.156-.004.234-.015a.87.87 0 00.354-.122c.054-.034.104-.072.151-.113a.115.115 0 01.073-.029zM9.144 30.296c.002.194-.033.386-.103.567-.062.165-.161.315-.288.44s-.282.224-.452.289a1.711 1.711 0 01-1.164 0 1.281 1.281 0 01-.741-.735 1.61 1.61 0 010-1.136c.065-.166.164-.317.291-.447.128-.121.281-.216.45-.279.374-.139.79-.139 1.164 0 .17.066.324.165.452.29.126.127.224.276.289.44.071.183.106.376.103.571zm-.402 0a1.313 1.313 0 00-.073-.456.898.898 0 00-.528-.556 1.23 1.23 0 00-.846 0 .901.901 0 00-.531.556 1.465 1.465 0 000 .912.888.888 0 00.531.554c.273.097.573.097.846 0a.884.884 0 00.528-.554c.051-.147.076-.301.073-.456zM12.161 30.774l.04.102a3.46 3.46 0 01.044-.102.933.933 0 01.05-.1l.978-1.694c.019-.029.036-.047.056-.053a.217.217 0 01.08-.009h.289v2.755h-.343v-2.026-.086a.753.753 0 010-.095l-.984 1.718c-.012.026-.033.047-.058.063s-.054.023-.084.023h-.056a.154.154 0 01-.141-.086l-1.013-1.729V31.668h-.331v-2.75h.289a.24.24 0 01.08.009c.024.011.043.03.054.053l.999 1.696c.02.031.036.064.05.098zM15.842 30.638v1.032h-.383v-2.752h.854a1.67 1.67 0 01.477.06.912.912 0 01.337.171.699.699 0 01.191.27.905.905 0 01.065.352.84.84 0 01-.071.352.744.744 0 01-.207.275.936.936 0 01-.339.182 1.498 1.498 0 01-.461.064l-.463-.007zm0-.296h.463a.992.992 0 00.297-.042.617.617 0 00.214-.119.488.488 0 00.13-.182.579.579 0 00.046-.232.522.522 0 00-.172-.412.766.766 0 00-.515-.148h-.463v1.134zM20.987 31.673h-.302a.133.133 0 01-.084-.026.164.164 0 01-.05-.064l-.26-.666h-1.307l-.27.666a.145.145 0 01-.048.062.132.132 0 01-.086.027h-.302l1.148-2.756h.398l1.164 2.756zm-1.895-1.023h1.08l-.456-1.122a1.828 1.828 0 01-.086-.259l-.044.144c-.013.044-.029.084-.042.117l-.452 1.12zM22.641 28.931a.16.16 0 01.057.049l1.675 2.077v-.097V28.918h.343v2.756h-.191a.173.173 0 01-.078-.016.2.2 0 01-.061-.051l-1.673-2.075a.753.753 0 010 .095v2.048h-.343v-2.756h.203a.163.163 0 01.069.013zM27.537 30.577v1.094h-.383v-1.094l-1.059-1.66h.343a.124.124 0 01.082.024.256.256 0 01.052.062l.662 1.071a1.256 1.256 0 01.117.245l.05-.119c.019-.043.04-.085.065-.126l.653-1.078a.274.274 0 01.05-.058.116.116 0 01.082-.027h.346l-1.06 1.667zM11.971 24.293c.167.02.335.036.505.051 2.583-1.101 4.768-2.902 6.282-5.18s2.29-4.929 2.231-7.624l-2.846-2.712c.579 2.869.308 5.836-.782 8.567s-2.956 5.12-5.389 6.898z"
      /><path
        d="M10.955 24.167l.076.015c2.6-1.772 4.583-4.247 5.691-7.104s1.292-5.965.526-8.922l-4.054-3.862c1.64 3.175 2.3 6.728 1.903 10.246s-1.833 6.857-4.143 9.628zM24.704 14.725c-.689 2.961-2.362 5.632-4.77 7.616a15.094 15.094 0 01-2.266 1.55c1.961-.549 3.764-1.52 5.269-2.838s2.672-2.947 3.412-4.763l-1.644-1.565z"
      /><path
        d="M24.059 14.289l-2.341-2.23c-.045 2.543-.804 5.028-2.197 7.197s-3.372 3.943-5.729 5.137h.012a14 14 0 001.572-.089c2.203-.857 4.148-2.219 5.664-3.967s2.553-3.825 3.021-6.047zM11.294 2.664L8.501 0C6.004.919 3.857 2.535 2.34 4.636S.008 9.225 0 11.775c.009 2.818 1.005 5.552 2.829 7.77s4.372 3.793 7.242 4.476c2.561-2.973 4.061-6.647 4.281-10.488s-.851-7.648-3.058-10.869zM30.512 13.878c-.01-3.343-1.409-6.546-3.89-8.91s-5.843-3.696-9.352-3.706a13.655 13.655 0 00-4.741.841l17.099 16.291c.585-1.44.885-2.971.884-4.515z"
      /></symbol><symbol id="logo4" viewBox="0 0 60 32"><path
        d="M9.229 9.548h-.002c-1.684 0-3.048 1.33-3.048 2.971v.002c0 1.641 1.365 2.971 3.048 2.971h.002c1.684 0 3.048-1.33 3.048-2.971v-.002c0-1.641-1.365-2.971-3.048-2.971zM31.73 8.599c-.005-2.279-.936-4.463-2.589-6.074S25.247.006 22.908.001c-2.339.004-4.581.911-6.235 2.523S14.087 6.32 14.083 8.6v12.566S31.728 19.251 31.73 8.602V8.6zM0 25.289c.004 1.586.652 3.105 1.803 4.226s2.709 1.753 4.336 1.758c1.627-.005 3.185-.636 4.336-1.757s1.799-2.64 1.803-4.225v-8.744S0 17.881 0 25.289zm6.139 1.567c-.318 0-.629-.092-.893-.264s-.47-.417-.592-.703-.154-.601-.091-.905c.062-.304.215-.583.44-.802s.511-.368.823-.429c.312-.06.635-.029.929.089s.545.319.721.577a1.537 1.537 0 01.15 1.471 1.585 1.585 0 01-.87.851c-.195.079-.405.12-.617.12v-.006zM18.671 25.884h-1.256v1.297h-.654v-3.174h2.067v.53h-1.413v.82h1.256v.528zm3.144-.218c0 .312-.055.587-.166.822s-.269.417-.475.545c-.205.128-.44.192-.706.192-.263 0-.498-.063-.704-.19s-.366-.307-.48-.541a1.867 1.867 0 01-.172-.811v-.157c0-.312.056-.587.168-.824a1.26 1.26 0 01.477-.547c.206-.128.442-.192.706-.192s.499.064.704.192c.206.126.366.309.477.547.113.237.17.511.17.822v.142zm-.663-.144c0-.333-.06-.586-.179-.759s-.289-.259-.51-.259a.583.583 0 00-.508.257c-.119.17-.18.42-.181.75v.155c0 .324.06.576.179.754s.291.268.515.268a.579.579 0 00.506-.257c.118-.173.177-.424.179-.754v-.155zm2.784.826a.331.331 0 00-.131-.283c-.087-.067-.244-.137-.471-.209a3.375 3.375 0 01-.538-.218c-.36-.195-.541-.457-.541-.787 0-.172.048-.324.144-.458a.945.945 0 01.416-.316 1.57 1.57 0 01.611-.113c.227 0 .429.041.606.124a.946.946 0 01.412.347c.099.15.148.32.148.51h-.654a.427.427 0 00-.137-.338c-.092-.081-.22-.122-.386-.122a.602.602 0 00-.373.102.317.317 0 00-.133.266c0 .103.052.19.155.259.105.07.258.135.46.196.372.112.643.251.813.416s.255.372.255.619a.767.767 0 01-.312.648c-.208.156-.488.233-.839.233-.244 0-.467-.044-.667-.133a1.07 1.07 0 01-.46-.368.945.945 0 01-.157-.541h.656c0 .35.209.525.628.525a.61.61 0 00.364-.094.313.313 0 00.131-.266zm3.491-1.812h-.972v2.645h-.654v-2.645h-.959v-.53h2.586v.53zm2.285 1.269h-1.256v.85h1.474v.525h-2.128v-3.174h2.124v.53h-1.47v.757h1.256v.512zm1.777.214h-.521v1.162h-.654v-3.174h1.18c.375 0 .664.084.868.251s.305.403.305.709a.973.973 0 01-.142.543.95.95 0 01-.425.344l.687 1.297v.03h-.702l-.595-1.162zm-.522-.53h.528c.164 0 .291-.041.382-.124.09-.084.135-.2.135-.347a.476.476 0 00-.129-.353c-.084-.086-.214-.129-.39-.129h-.525v.953zm3.964.574v1.118h-.654v-3.174h1.238c.238 0 .448.044.628.131a.964.964 0 01.419.373c.097.16.146.342.146.547 0 .311-.107.557-.32.737-.212.179-.507.268-.883.268h-.573zm0-.53h.584c.173 0 .305-.041.395-.122.092-.081.137-.198.137-.349 0-.156-.046-.281-.137-.377s-.218-.145-.379-.148h-.6v.996zm4.138.272h-1.256v.85h1.474v.525h-2.128v-3.174h2.124v.53h-1.469v.757h1.256v.512zm3.035-1.269h-.972v2.645h-.654v-2.645h-.959v-.53h2.586v.53zm2.285 1.269h-1.256v.85h1.474v.525h-2.128v-3.174h2.124v.53h-1.469v.757h1.256v.512zm1.777.214h-.521v1.162h-.654v-3.174h1.18c.375 0 .664.084.868.251s.305.403.305.709a.973.973 0 01-.142.543.95.95 0 01-.425.344l.687 1.297v.03h-.702l-.595-1.162zm-.521-.53h.528c.164 0 .291-.041.382-.124.09-.084.135-.2.135-.347a.476.476 0 00-.129-.353c-.084-.086-.214-.129-.39-.129h-.525v.953zm3.844.859a.331.331 0 00-.131-.283c-.087-.067-.244-.137-.471-.209a3.432 3.432 0 01-.539-.218c-.36-.195-.541-.457-.541-.787 0-.172.048-.324.144-.458a.945.945 0 01.416-.316c.182-.076.385-.113.61-.113.227 0 .429.041.606.124a.946.946 0 01.412.347c.099.15.148.32.148.51h-.654a.427.427 0 00-.137-.338c-.092-.081-.22-.122-.386-.122a.602.602 0 00-.373.102.317.317 0 00-.133.266c0 .103.052.19.155.259.105.07.258.135.46.196.372.112.643.251.813.416s.255.372.255.619a.767.767 0 01-.312.648c-.208.156-.488.233-.839.233-.244 0-.467-.044-.667-.133a1.07 1.07 0 01-.46-.368.945.945 0 01-.157-.541h.656c0 .35.209.525.628.525a.61.61 0 00.364-.094.313.313 0 00.131-.266z"
      /></symbol><symbol id="logo5" viewBox="0 0 40 32"><path
        d="M3.055 26.742c.156.194.24.438.236.688a1.092 1.092 0 01-.365.869 1.575 1.575 0 01-1.061.317H0v-4.361h1.827c.361-.024.718.078 1.012.29a.998.998 0 01.354.816c.011.241-.065.477-.212.667a.997.997 0 01-.556.341c.247.045.471.177.63.373zm-2.187-.658h.781a.736.736 0 00.496-.145.507.507 0 00.167-.426.526.526 0 00-.165-.426.75.75 0 00-.511-.147H.868v1.144zm1.354 1.672a.54.54 0 00.185-.443.56.56 0 00-.188-.448.803.803 0 00-.53-.158H.87v1.199h.83a.822.822 0 00.524-.151zM6.79 28.617l-1.016-1.704h-.382v1.704h-.874v-4.361h1.655c.417-.029.83.103 1.152.371a1.394 1.394 0 01.123 1.804 1.342 1.342 0 01-.789.443l1.082 1.743H6.79zm-1.399-2.299h.715c.497 0 .745-.22.745-.66a.641.641 0 00-.183-.49.771.771 0 00-.562-.177h-.724l.008 1.327zM11.568 27.739H9.826l-.308.878h-.917l1.6-4.312h.991l1.593 4.312h-.917l-.301-.878zm-.233-.66l-.637-1.841-.637 1.841h1.273zM17.55 28.617h-.868l-1.946-2.965v2.965h-.866v-4.361h.866l1.946 2.983v-2.983h.868v4.361zM22.502 27.573a1.877 1.877 0 01-.785.769 2.546 2.546 0 01-1.22.275h-1.545v-4.361h1.545c.422-.011.841.081 1.22.268.332.168.606.433.785.761a2.541 2.541 0 010 2.288zm-.993-.104a1.601 1.601 0 000-2.082 1.506 1.506 0 00-1.086-.371h-.603v2.823h.603a1.5 1.5 0 001.086-.371zM12.111 0s11.201 4.246 10.963 10.39v10.392S11.881 16.534 12.115 10.39L12.111 0zM33.054 18.349a15.301 15.301 0 017.117-2.633v-3.253a14.62 14.62 0 00-7.117 5.886z"
      /><path
        d="M31.783 19.329a15.237 15.237 0 018.388-7.548V2.407S24.219 8.455 24.557 17.204v14.795s.711-.27 1.829-.778c0-.473 0-.95.051-1.43a15.387 15.387 0 015.347-10.464z"
      /><path
        d="M30.266 24.825a15.35 15.35 0 01.558-3.029 14.323 14.323 0 00-3.377 8.937 46.367 46.367 0 003.068-1.623 15.355 15.355 0 01-.248-4.284zM30.9 24.878a14.705 14.705 0 00.197 3.879c4.358-2.618 9.255-6.664 9.067-11.553v-.426a14.276 14.276 0 00-8.292 3.89 14.648 14.648 0 00-.972 4.21z"
      /></symbol><symbol id="logo6" viewBox="0 0 62 32"><path
        d="M31.124 14.854a2.264 2.264 0 01-.397-1.431v-2.075c0-.636.132-1.119.395-1.45s.715-.495 1.356-.494c.602 0 1.029.141 1.282.422.276.359.41.798.379 1.241v.488h-1.077v-.494a2.787 2.787 0 00-.031-.483.482.482 0 00-.154-.287.587.587 0 00-.39-.112.619.619 0 00-.41.118.563.563 0 00-.178.317 2.594 2.594 0 00-.042.513v2.518c-.017.243.031.486.138.707.054.075.128.134.215.171s.183.051.278.04a.545.545 0 00.381-.114.521.521 0 00.161-.306c.025-.167.036-.336.033-.505v-.511h1.077v.466c.03.462-.101.92-.372 1.304-.248.308-.669.462-1.289.462s-1.088-.165-1.353-.507zM35.607 14.876c-.272-.323-.408-.794-.408-1.416v-2.182c0-.616.136-1.083.408-1.399s.727-.474 1.364-.473c.633 0 1.086.158 1.358.473.272.317.41.783.41 1.399v2.182c0 .616-.138 1.089-.415 1.414s-.727.488-1.353.488-1.09-.165-1.364-.485zm1.866-.524c.097-.202.142-.424.129-.646v-2.672a1.275 1.275 0 00-.127-.633c-.055-.076-.131-.137-.22-.174s-.187-.05-.284-.037c-.097-.013-.195 0-.285.037s-.166.097-.221.174a1.255 1.255 0 00-.129.633v2.685c-.014.222.031.444.129.646.063.068.14.123.227.16a.708.708 0 00.554 0 .664.664 0 00.227-.16v-.013zM40.035 9.468h1.159l.872 4.027.892-4.027h1.128l.114 5.812h-.834l-.089-4.04-.861 4.04h-.669l-.892-4.054-.082 4.054h-.843l.105-5.812zM45.5 9.468h1.806c1.04 0 1.561.55 1.561 1.65 0 1.054-.548 1.58-1.643 1.579h-.615v2.583h-1.115l.007-5.812zm1.542 2.484c.11.013.222.004.328-.028s.203-.085.285-.156c.128-.196.184-.427.16-.656a1.999 1.999 0 00-.053-.528c-.016-.058-.044-.112-.082-.159s-.086-.087-.141-.117a1.072 1.072 0 00-.497-.093h-.432v1.737h.432zM50.474 9.468h1.197l1.228 5.812H51.86l-.243-1.34h-1.068l-.25 1.34h-1.055l1.228-5.812zm1.023 3.799l-.417-2.44-.417 2.44h.834zM53.891 9.468h.78l1.494 3.316V9.468h.925v5.812h-.742l-1.503-3.461v3.461h-.956l.002-5.812zM59.258 13.064l-1.242-3.588h1.046l.758 2.305.711-2.305h1.023l-1.226 3.588v2.216h-1.07v-2.216zM32.845 17.822v.304h-.91v2.362h-.381v-2.362h-.914v-.304h2.205zM35.697 20.488h-.294a.124.124 0 01-.083-.025.139.139 0 01-.049-.061l-.263-.633h-1.262l-.263.633a.177.177 0 01-.04.072.122.122 0 01-.083.025h-.294l1.115-2.666h.388l1.128 2.655zm-1.847-.99h1.052l-.446-1.085a2.234 2.234 0 01-.083-.251l-.042.141-.04.112-.441 1.083zM37.618 20.226a1.071 1.071 0 00.388-.032c.055-.013.108-.029.16-.049.049-.019.098-.042.149-.065v-.599h-.446c-.011.001-.022-.001-.032-.005a.081.081 0 01-.045-.039.05.05 0 01-.005-.027v-.205h.865v1.022a1.521 1.521 0 01-.47.218 1.86 1.86 0 01-.279.055 3.22 3.22 0 01-.326.017 1.56 1.56 0 01-.562-.099 1.34 1.34 0 01-.446-.279 1.3 1.3 0 01-.288-.422 1.459 1.459 0 01-.103-.553c-.002-.19.032-.379.1-.557.064-.158.162-.302.288-.422.127-.12.279-.214.446-.277.191-.068.394-.102.597-.099.104 0 .207.008.31.023a1.393 1.393 0 01.488.174c.068.042.133.088.194.139l-.107.165a.098.098 0 01-.087.051.136.136 0 01-.069-.021 1.538 1.538 0 01-.109-.063.975.975 0 00-.149-.072 1.301 1.301 0 00-.205-.059 1.574 1.574 0 00-.283-.023 1.187 1.187 0 00-.43.074.93.93 0 00-.328.211.943.943 0 00-.207.331c-.1.289-.1.6 0 .889a.964.964 0 00.549.547c.142.046.292.064.441.053zM41.172 20.184h1.217v.304h-1.59v-2.666h.381l-.009 2.362zM43.656 20.488h-.381v-2.666h.381v2.666zM45.074 17.834a.183.183 0 01.058.049l1.63 2.009a.753.753 0 010-.095V17.81h.332v2.676h-.192a.17.17 0 01-.083-.015.196.196 0 01-.06-.051l-1.628-2.007v2.073h-.319V17.82h.198c.022 0 .043.004.062.013zM49.901 17.822v.293H48.55v.88h1.095v.283H48.55v.91h1.351v.293h-1.743v-2.659h1.743zM9.95 1.359L26.879 5.91v15.946L9.95 17.308V1.36zM8.864 0v18.082l19.098 5.135V5.137L8.864 0z"
      /><path d="M19.1 31.611L0 26.472V8.392l19.1 5.137v18.082z" /><path
        d="M9.181 1.155l16.708 4.493-7.105 6.729-16.71-4.496 7.108-6.726zM8.864 0L0 8.392l19.1 5.137 8.862-8.392L8.864 0zM20.175 30.593l7.788-7.374-7.788-2.096v9.47z"
      /></symbol><symbol id="send" viewBox="0 0 32 32"><path
        d="M32 0L0 18l10.227 3.788L26 7 14.002 23.186l.01.004-.012-.004V32l5.735-6.691L27 28l5-28z"
      /></symbol><symbol id="smartphone" viewBox="0 0 21 32"><path
        d="M18.133 0H3.2C1.435 0 0 1.34 0 2.987v25.889c0 1.647 1.435 2.987 3.2 2.987h14.933c1.765 0 3.2-1.34 3.2-2.987V2.987c0-1.647-1.435-2.987-3.2-2.987zM3.2 1.992h14.933c.589 0 1.067.446 1.067.996v20.91H2.133V2.988c0-.549.478-.996 1.067-.996zm14.933 27.88H3.2c-.589 0-1.067-.446-1.067-.996v-2.987H19.2v2.987c0 .549-.478.996-1.067.996z"
      /><path
        d="M5.021 27.177c.417.389.417 1.02 0 1.409s-1.092.389-1.508 0c-.417-.389-.417-1.02 0-1.409s1.092-.389 1.508 0z"
      /></symbol>
<symbol id="twitter" viewBox="0 0 32 32"><path
        d="M32 6.078c-1.19.522-2.458.868-3.78 1.036a6.523 6.523 0 002.886-3.626 13.11 13.11 0 01-4.16 1.588A6.574 6.574 0 0022.154 3c-3.632 0-6.556 2.948-6.556 6.562 0 .52.044 1.02.152 1.496-5.454-.266-10.28-2.88-13.522-6.862a6.605 6.605 0 00-.898 3.316 6.57 6.57 0 002.914 5.452 6.479 6.479 0 01-2.964-.808v.072c0 3.188 2.274 5.836 5.256 6.446a6.548 6.548 0 01-1.72.216 5.8 5.8 0 01-1.242-.112c.85 2.598 3.262 4.508 6.13 4.57a13.182 13.182 0 01-8.134 2.798c-.538 0-1.054-.024-1.57-.09A18.469 18.469 0 0010.064 29c12.072 0 18.672-10 18.672-18.668 0-.29-.01-.57-.024-.848A13.087 13.087 0 0032 6.078z"
      /></symbol>
<symbol id="email" viewBox="0 0 18 18">
        <path
        d="M15 3H3C2.175 3 1.5075 3.675 1.5075 4.5L1.5 13.5C1.5 14.325 2.175 15 3 15H15C15.825 15 16.5 14.325 16.5 13.5V4.5C16.5 3.675 15.825 3 15 3ZM14.7 6.1875L9.3975 9.5025C9.1575 9.6525 8.8425 9.6525 8.6025 9.5025L3.3 6.1875C3.1125 6.0675 3 5.865 3 5.6475C3 5.145 3.5475 4.845 3.975 5.1075L9 8.25L14.025 5.1075C14.4525 4.845 15 5.145 15 5.6475C15 5.865 14.8875 6.0675 14.7 6.1875Z"
      /></symbol>
<symbol id="person" viewBox="0 0 18 18">
<path
        d="M9 9C10.6575 9 12 7.6575 12 6C12 4.3425 10.6575 3 9 3C7.3425 3 6 4.3425 6 6C6 7.6575 7.3425 9 9 9ZM9 10.5C6.9975 10.5 3 11.505 3 13.5V14.25C3 14.6625 3.3375 15 3.75 15H14.25C14.6625 15 15 14.6625 15 14.25V13.5C15 11.505 11.0025 10.5 9 10.5Z"
      />
</symbol>
<symbol id="phone" viewBox="0 0 18 18">
<path
        d="M13.9958 11.1226L12.1576 10.9127C11.7162 10.862 11.282 11.014 10.9708 11.3252L9.63924 12.6568C7.59123 11.6147 5.91229 9.94296 4.8702 7.8877L6.209 6.54888C6.52018 6.2377 6.67216 5.80349 6.6215 5.36205L6.41163 3.53836C6.32479 2.80745 5.70966 2.25745 4.97151 2.25745H3.71955C2.90179 2.25745 2.22153 2.93771 2.27219 3.75547C2.65574 9.93572 7.59847 14.8712 13.7714 15.2548C14.5892 15.3054 15.2695 14.6252 15.2695 13.8074V12.5555C15.2767 11.8245 14.7267 11.2094 13.9958 11.1226Z"
      />
</symbol>
<symbol id="close" viewBox="0 0 11 11">
<path
        d="M11 1.10786L9.89214 0L5.5 4.39214L1.10786 0L0 1.10786L4.39214 5.5L0 9.89214L1.10786 11L5.5 6.60786L9.89214 11L11 9.89214L6.60786 5.5L11 1.10786Z"
      />

</symbol>
<symbol id="icon-menu" viewBox="0 0 40 40">
<path
        d="M8 14.6667V12H32V14.6667H8ZM8 21.3333H32V18.6667H8V21.3333ZM8 28H32V25.3333H8V28Z"
      />
</symbol>
<symbol id="icon-cross" viewBox="0 0 40 40">
<path
        d="M29.6667 12.88L27.7867 11L20.3333 18.4533L12.88 11L11 12.88L18.4533 20.3333L11 27.7867L12.88 29.6667L20.3333 22.2133L27.7867 29.6667L29.6667 27.7867L22.2133 20.3333L29.6667 12.88Z"
      />
</symbol>
<symbol id="logo-ws" viewBox="0 0 140 19">
<path d="M7.656 1.008H10.704L12.624 6.648L14.544 1.008H17.616L14.712 8.76L16.872 14.208L21.696 0.959999H25.296L18.36 18H15.576L12.624 10.848L9.672 18H6.888L0 0.959999H3.552L8.4 14.208L10.512 8.76L7.656 1.008ZM31.7347 18.24C30.7267 18.24 29.8147 18.072 28.9987 17.736C28.1827 17.384 27.4867 16.912 26.9107 16.32C26.3347 15.728 25.8867 15.04 25.5667 14.256C25.2627 13.472 25.1107 12.648 25.1107 11.784C25.1107 10.888 25.2627 10.048 25.5667 9.264C25.8707 8.464 26.3107 7.768 26.8867 7.176C27.4627 6.568 28.1587 6.088 28.9747 5.736C29.8067 5.384 30.7347 5.208 31.7587 5.208C32.7827 5.208 33.6947 5.384 34.4948 5.736C35.3108 6.088 35.9987 6.56 36.5587 7.152C37.1347 7.744 37.5667 8.432 37.8547 9.216C38.1587 10 38.3107 10.816 38.3107 11.664C38.3107 11.872 38.3027 12.072 38.2867 12.264C38.2867 12.456 38.2708 12.616 38.2388 12.744H28.5187C28.5667 13.24 28.6867 13.68 28.8787 14.064C29.0707 14.448 29.3187 14.776 29.6227 15.048C29.9267 15.32 30.2707 15.528 30.6547 15.672C31.0387 15.816 31.4387 15.888 31.8547 15.888C32.4947 15.888 33.0947 15.736 33.6547 15.432C34.2307 15.112 34.6227 14.696 34.8307 14.184L37.5908 14.952C37.1268 15.912 36.3828 16.704 35.3587 17.328C34.3507 17.936 33.1427 18.24 31.7347 18.24ZM34.9987 10.656C34.9188 9.712 34.5668 8.96 33.9427 8.4C33.3347 7.824 32.5907 7.536 31.7107 7.536C31.2787 7.536 30.8707 7.616 30.4867 7.776C30.1187 7.92 29.7907 8.128 29.5027 8.4C29.2147 8.672 28.9747 9 28.7827 9.384C28.6067 9.768 28.5027 10.192 28.4707 10.656H34.9987ZM48.1419 18.24C47.1819 18.24 46.3259 18.024 45.5739 17.592C44.8219 17.16 44.2299 16.568 43.7979 15.816V18H40.9899V0.48H44.2059V7.632C44.6539 6.864 45.2379 6.272 45.9579 5.856C46.6939 5.424 47.5499 5.208 48.5259 5.208C49.3419 5.208 50.0859 5.384 50.7579 5.736C51.4299 6.088 52.0059 6.56 52.4859 7.152C52.9819 7.744 53.3579 8.44 53.6139 9.24C53.8859 10.04 54.0219 10.88 54.0219 11.76C54.0219 12.672 53.8699 13.52 53.5659 14.304C53.2779 15.088 52.8699 15.776 52.3419 16.368C51.8139 16.944 51.1899 17.4 50.4699 17.736C49.7499 18.072 48.9739 18.24 48.1419 18.24ZM47.2539 15.504C47.7659 15.504 48.2379 15.408 48.6699 15.216C49.1019 15.008 49.4699 14.736 49.7739 14.4C50.0779 14.064 50.3099 13.672 50.4699 13.224C50.6459 12.776 50.7339 12.296 50.7339 11.784C50.7339 11.272 50.6539 10.784 50.4939 10.32C50.3339 9.856 50.1019 9.448 49.7979 9.096C49.5099 8.744 49.1659 8.464 48.7659 8.256C48.3659 8.048 47.9259 7.944 47.4459 7.944C46.7259 7.944 46.0779 8.184 45.5019 8.664C44.9419 9.128 44.5099 9.704 44.2059 10.392V13.392C44.3179 13.712 44.4779 14 44.6859 14.256C44.9099 14.512 45.1579 14.736 45.4299 14.928C45.7019 15.104 45.9979 15.248 46.3179 15.36C46.6379 15.456 46.9499 15.504 47.2539 15.504Z" fill="#2196F3"/>
<path d="M73.8705 5.424C73.7585 5.312 73.5505 5.16 73.2465 4.968C72.9585 4.776 72.5985 4.592 72.1665 4.416C71.7505 4.224 71.2945 4.064 70.7985 3.936C70.3025 3.808 69.7985 3.744 69.2865 3.744C68.3745 3.744 67.6945 3.912 67.2465 4.248C66.7985 4.584 66.5745 5.056 66.5745 5.664C66.5745 6.016 66.6545 6.312 66.8145 6.552C66.9905 6.776 67.2385 6.976 67.5585 7.152C67.8785 7.328 68.2785 7.488 68.7585 7.632C69.2545 7.776 69.8225 7.928 70.4625 8.088C71.2945 8.312 72.0465 8.552 72.7185 8.808C73.4065 9.064 73.9825 9.384 74.4465 9.768C74.9265 10.152 75.2945 10.616 75.5505 11.16C75.8065 11.688 75.9345 12.344 75.9345 13.128C75.9345 14.04 75.7585 14.824 75.4065 15.48C75.0705 16.12 74.6065 16.64 74.0145 17.04C73.4385 17.44 72.7665 17.736 71.9985 17.928C71.2465 18.104 70.4545 18.192 69.6225 18.192C68.3425 18.192 67.0785 18 65.8305 17.616C64.5825 17.232 63.4625 16.688 62.4705 15.984L63.9345 13.128C64.0785 13.272 64.3345 13.464 64.7025 13.704C65.0865 13.928 65.5345 14.16 66.0465 14.4C66.5585 14.624 67.1265 14.816 67.7505 14.976C68.3745 15.136 69.0145 15.216 69.6705 15.216C71.4945 15.216 72.4065 14.632 72.4065 13.464C72.4065 13.096 72.3025 12.784 72.0945 12.528C71.8865 12.272 71.5905 12.048 71.2065 11.856C70.8225 11.664 70.3585 11.488 69.8145 11.328C69.2705 11.168 68.6625 10.992 67.9905 10.8C67.1745 10.576 66.4625 10.336 65.8545 10.08C65.2625 9.808 64.7665 9.496 64.3665 9.144C63.9665 8.776 63.6625 8.36 63.4545 7.896C63.2625 7.416 63.1665 6.848 63.1665 6.192C63.1665 5.328 63.3265 4.56 63.6465 3.888C63.9665 3.216 64.4065 2.656 64.9665 2.208C65.5425 1.76 66.2065 1.424 66.9585 1.2C67.7105 0.959999 68.5185 0.839999 69.3825 0.839999C70.5825 0.839999 71.6865 1.032 72.6945 1.416C73.7025 1.784 74.5825 2.224 75.3345 2.736L73.8705 5.424ZM86.2406 17.352C85.8086 17.544 85.2806 17.736 84.6566 17.928C84.0326 18.12 83.3766 18.216 82.6886 18.216C82.2406 18.216 81.8166 18.16 81.4166 18.048C81.0326 17.936 80.6886 17.76 80.3846 17.52C80.0966 17.264 79.8646 16.944 79.6886 16.56C79.5126 16.16 79.4246 15.68 79.4246 15.12V7.896H77.7686V5.424H79.4246V1.344H82.6406V5.424H85.2806V7.896H82.6406V14.04C82.6406 14.488 82.7526 14.808 82.9766 15C83.2166 15.176 83.5046 15.264 83.8406 15.264C84.1766 15.264 84.5046 15.208 84.8246 15.096C85.1446 14.984 85.4006 14.888 85.5926 14.808L86.2406 17.352ZM92.4756 18.24C91.1796 18.24 90.1956 17.824 89.5236 16.992C88.8516 16.16 88.5156 14.928 88.5156 13.296V5.424H91.7316V12.6C91.7316 14.536 92.4276 15.504 93.8196 15.504C94.4436 15.504 95.0436 15.32 95.6196 14.952C96.2116 14.568 96.6916 13.992 97.0596 13.224V5.424H100.276V14.304C100.276 14.64 100.332 14.88 100.444 15.024C100.572 15.168 100.772 15.248 101.044 15.264V18C100.724 18.064 100.452 18.104 100.228 18.12C100.02 18.136 99.8276 18.144 99.6516 18.144C99.0756 18.144 98.6036 18.016 98.2356 17.76C97.8836 17.488 97.6756 17.12 97.6116 16.656L97.5396 15.648C96.9796 16.512 96.2596 17.16 95.3796 17.592C94.4996 18.024 93.5316 18.24 92.4756 18.24ZM109.4 18.24C108.536 18.24 107.736 18.072 107 17.736C106.264 17.4 105.632 16.936 105.104 16.344C104.576 15.752 104.16 15.064 103.856 14.28C103.568 13.48 103.424 12.624 103.424 11.712C103.424 10.8 103.56 9.952 103.832 9.168C104.12 8.384 104.512 7.696 105.008 7.104C105.504 6.512 106.096 6.048 106.784 5.712C107.472 5.376 108.224 5.208 109.04 5.208C109.968 5.208 110.8 5.432 111.536 5.88C112.288 6.328 112.872 6.912 113.288 7.632V0.48H116.504V14.304C116.504 14.64 116.56 14.88 116.672 15.024C116.784 15.168 116.976 15.248 117.248 15.264V18C116.688 18.112 116.232 18.168 115.88 18.168C115.304 18.168 114.832 18.024 114.464 17.736C114.096 17.448 113.888 17.072 113.84 16.608L113.768 15.816C113.304 16.616 112.672 17.224 111.872 17.64C111.088 18.04 110.264 18.24 109.4 18.24ZM110.24 15.504C110.544 15.504 110.856 15.456 111.176 15.36C111.496 15.248 111.792 15.096 112.064 14.904C112.336 14.712 112.576 14.488 112.784 14.232C113.008 13.976 113.176 13.696 113.288 13.392V10.392C113.16 10.04 112.976 9.72 112.736 9.432C112.512 9.128 112.248 8.872 111.944 8.664C111.656 8.44 111.344 8.264 111.008 8.136C110.688 8.008 110.368 7.944 110.048 7.944C109.568 7.944 109.12 8.048 108.704 8.256C108.304 8.464 107.96 8.752 107.672 9.12C107.384 9.472 107.16 9.88 107 10.344C106.84 10.808 106.76 11.288 106.76 11.784C106.76 12.312 106.848 12.8 107.024 13.248C107.2 13.696 107.44 14.088 107.744 14.424C108.048 14.76 108.408 15.024 108.824 15.216C109.256 15.408 109.728 15.504 110.24 15.504ZM120.38 18V5.424H123.596V18H120.38ZM120.38 3.672V0.48H123.596V3.672H120.38ZM133.025 18.24C132.001 18.24 131.081 18.064 130.265 17.712C129.449 17.36 128.753 16.888 128.177 16.296C127.617 15.688 127.185 14.992 126.881 14.208C126.577 13.424 126.425 12.6 126.425 11.736C126.425 10.856 126.577 10.024 126.881 9.24C127.185 8.456 127.617 7.768 128.177 7.176C128.753 6.568 129.449 6.088 130.265 5.736C131.081 5.384 132.001 5.208 133.025 5.208C134.049 5.208 134.961 5.384 135.761 5.736C136.577 6.088 137.265 6.568 137.825 7.176C138.401 7.768 138.841 8.456 139.145 9.24C139.449 10.024 139.601 10.856 139.601 11.736C139.601 12.6 139.449 13.424 139.145 14.208C138.841 14.992 138.409 15.688 137.849 16.296C137.289 16.888 136.601 17.36 135.785 17.712C134.969 18.064 134.049 18.24 133.025 18.24ZM129.737 11.736C129.737 12.296 129.817 12.808 129.977 13.272C130.153 13.72 130.385 14.112 130.673 14.448C130.977 14.784 131.329 15.048 131.729 15.24C132.129 15.416 132.561 15.504 133.025 15.504C133.489 15.504 133.921 15.416 134.321 15.24C134.721 15.048 135.065 14.784 135.353 14.448C135.657 14.112 135.889 13.712 136.049 13.248C136.225 12.784 136.313 12.272 136.313 11.712C136.313 11.168 136.225 10.664 136.049 10.2C135.889 9.736 135.657 9.336 135.353 9C135.065 8.664 134.721 8.408 134.321 8.232C133.921 8.04 133.489 7.944 133.025 7.944C132.561 7.944 132.129 8.04 131.729 8.232C131.329 8.424 130.977 8.688 130.673 9.024C130.385 9.36 130.153 9.76 129.977 10.224C129.817 10.688 129.737 11.192 129.737 11.736Z"/>
</symbol>
</defs></svg>
